PathFileType	4	(X/Y/Z)	 s11c0101.trc
DataRate	CameraRate	NumFrames	NumMarkers	Units	OrigDataRate	OrigDataStartFrame	OrigNumFrames
200	200	4	48	mm	200	251	2000
Frame#	Time	racr			lacr			c7			jug			rlel			rdr			llel			ldr			s2			lic			ric			lasi			rasi			rpsi			lpsi			rgt			lgt			rth1			rth2			rth3			rth4			rlfc			rmfc			rsh1			rsh2			rsh3			rsh4			rlmal			rcal			rtoe			rmt5			lth1			lth2			lth4			lth3			llfc			lmfc			llmal			lcal			lmt5			lsh1			lsh2			lsh3			lsh4			ltoe			SBIKE			LBIKE			RBIKE			
		X1	Y1	Z1	X2	Y2	Z2	X3	Y3	Z3	X4	Y4	Z4	X5	Y5	Z5	X6	Y6	Z6	X7	Y7	Z7	X8	Y8	Z8	X9	Y9	Z9	X10	Y10	Z10	X11	Y11	Z11	X12	Y12	Z12	X13	Y13	Z13	X14	Y14	Z14	X15	Y15	Z15	X16	Y16	Z16	X17	Y17	Z17	X18	Y18	Z18	X19	Y19	Z19	X20	Y20	Z20	X21	Y21	Z21	X22	Y22	Z22	X23	Y23	Z23	X24	Y24	Z24	X25	Y25	Z25	X26	Y26	Z26	X27	Y27	Z27	X28	Y28	Z28	X29	Y29	Z29	X30	Y30	Z30	X31	Y31	Z31	X32	Y32	Z32	X33	Y33	Z33	X34	Y34	Z34	X35	Y35	Z35	X36	Y36	Z36	X37	Y37	Z37	X38	Y38	Z38	X39	Y39	Z39	X40	Y40	Z40	X41	Y41	Z41	X42	Y42	Z42	X43	Y43	Z43	X44	Y44	Z44	X45	Y45	Z45	X46	Y46	Z46	X47	Y47	Z47	X48	Y48	Z48	
251	1.2550	478.307556	1412.465773	-75.705657	481.371198	1437.574558	-409.200809	397.303878	1528.544986	-243.403030	454.935783	1359.714573	-249.908737	596.998031	1168.756506	-17.536031	788.530800	938.160686	-35.196406	578.760474	1154.719408	-479.361051	803.856676	931.480569	-438.453281	-111.819750	1210.482155	-245.203959	115.848144	1219.515443	-444.464884	109.892317	1212.845407	-51.743748	138.860604	1142.059320	-411.926675	132.990180	1145.541148	-83.680999	-64.677611	1279.795666	-192.634762	-67.927066	1273.735450	-290.689252	47.730996	1068.069289	-26.519354	25.388684	1091.216602	-458.929967	163.937662	981.304283	-19.225525	249.635579	957.719688	-25.038027	309.331369	894.792044	-36.799441	268.099655	988.594454	-34.829932	397.923388	826.154160	-51.059994	405.903736	813.790643	-183.289998	292.615571	710.332560	-49.579579	244.719943	639.949761	-73.870775	167.574250	599.597254	-79.548083	263.823710	627.161030	-106.264614	59.711977	527.415706	-98.515177	-4.213571	546.375276	-149.368319	214.580672	361.670882	-138.181027	140.151774	378.079809	-70.792928	139.825962	986.053795	-474.869829	215.701877	946.687643	-467.196222	240.522587	972.638809	-456.717208	263.013380	870.250415	-460.359355	359.730422	768.054386	-428.304609	369.293046	762.527342	-301.815395	273.416526	345.364027	-408.344827	220.473205	299.168047	-375.521317	425.602990	257.015865	-439.161478	326.334005	645.277553	-448.113175	337.626855	560.552713	-436.797571	304.997120	478.474556	-432.124618	369.055512	558.988232	-414.860432	518.109107	285.690255	-368.449938	-205.277369	960.969807	-261.512104	1.437923	82.519536	-461.133584	-15.308337	81.029348	-62.463859	
252	1.2600	478.276605	1412.659168	-75.708730	481.400147	1437.649178	-409.118566	397.095675	1528.779959	-243.345128	454.898765	1360.001576	-249.844976	596.977032	1168.824477	-17.188641	788.613584	938.248011	-34.969137	578.931622	1154.986428	-479.484625	803.919916	931.524074	-438.636773	-111.832890	1210.458815	-245.181791	115.865644	1219.539115	-444.441530	109.913184	1212.818601	-51.711473	138.916402	1142.132348	-411.911089	133.002895	1145.514674	-83.664696	-64.706664	1279.751467	-192.591146	-67.972274	1273.723646	-290.643880	47.726763	1067.989551	-26.533735	25.391400	1091.238036	-458.883055	163.923847	981.284405	-19.227419	249.632985	957.702064	-25.039616	309.321307	894.780493	-36.808216	268.112485	988.573287	-34.849074	397.929101	826.149192	-51.079737	405.928591	813.757499	-183.302523	292.621653	710.317841	-49.596239	244.723347	639.921972	-73.897472	167.558070	599.590641	-79.558886	263.841101	627.155590	-106.273471	59.709741	527.407456	-98.521617	-4.212145	546.364568	-149.368011	214.567966	361.652617	-138.182231	140.188163	378.010050	-70.824350	139.819592	986.083535	-474.834801	215.711507	946.702787	-467.166071	240.530963	972.691894	-456.711065	263.003515	870.286139	-460.347406	359.712845	768.086485	-428.298939	369.312216	762.561337	-301.794167	273.481744	345.268892	-407.968770	220.475108	299.179204	-375.535009	425.698695	256.895696	-439.046257	326.336716	645.306674	-448.116361	337.641098	560.578772	-436.810764	304.996180	478.503068	-432.125614	369.055996	559.008894	-414.855836	518.130742	285.684277	-368.450476	-205.267935	960.966954	-261.524364	1.464504	82.513122	-461.129760	-15.306423	81.035505	-62.472493	
253	1.2650	478.244817	1412.799943	-75.692769	481.400457	1437.715453	-409.032274	396.864533	1528.939805	-243.295505	454.900492	1360.246118	-249.802424	596.995891	1168.896231	-16.775415	788.771754	938.386514	-34.599253	579.007938	1155.206268	-479.650169	803.967920	931.562897	-438.805262	-111.913829	1210.395199	-245.133094	115.861968	1219.589067	-444.430169	109.946347	1212.786234	-51.703776	138.964820	1142.185179	-411.911244	133.019638	1145.490804	-83.649670	-64.774309	1279.710076	-192.534307	-68.014143	1273.710152	-290.615615	47.726159	1067.961030	-26.531557	25.363637	1091.254343	-458.861712	163.923394	981.276219	-19.235975	249.640156	957.679442	-25.055766	309.325744	894.748325	-36.826705	268.078057	988.571159	-34.846786	397.918756	826.108288	-51.104488	405.939984	813.764903	-183.324920	292.628891	710.278220	-49.626608	244.724353	639.893118	-73.919864	167.581498	599.562994	-79.593965	263.838635	627.133344	-106.309023	59.710305	527.390883	-98.539518	-4.202374	546.356082	-149.377559	214.566305	361.632105	-138.179654	140.140788	378.039559	-70.788096	139.812201	986.104325	-474.831243	215.691079	946.730897	-467.165820	240.517148	972.697226	-456.691229	262.989174	870.310065	-460.325478	359.711618	768.113560	-428.298663	369.325357	762.583634	-301.812758	273.506629	345.262136	-407.958297	220.494169	299.216046	-375.527138	425.727473	256.903912	-439.023867	326.340012	645.313229	-448.108875	337.638534	560.599638	-436.808636	305.007500	478.506361	-432.111533	369.051570	559.059027	-414.865321	518.156125	285.711593	-368.433800	-205.265913	960.976919	-261.516138	1.391984	82.626215	-461.036643	-15.286817	81.048271	-62.481518	
254	1.2700	478.176989	1412.977021	-75.736163	481.361008	1437.813231	-408.982193	396.582385	1529.178106	-243.444319	454.871118	1360.442565	-249.761179	597.017572	1168.910725	-16.312311	788.926607	938.529249	-34.268094	579.021654	1155.355969	-479.816334	803.982748	931.557670	-438.914964	-111.937765	1210.365546	-245.105108	115.844537	1219.632588	-444.449098	109.927558	1212.747893	-51.681047	139.041812	1142.327299	-412.015549	133.038807	1145.434448	-83.645937	-64.780253	1279.646162	-192.504600	-68.090154	1273.704799	-290.557084	47.723432	1067.948965	-26.520098	25.336933	1091.282744	-458.868657	163.913594	981.239571	-19.241542	249.621713	957.660354	-25.066186	309.331896	894.732320	-36.851817	268.087361	988.540951	-34.844267	397.908040	826.085241	-51.125172	405.910064	813.756916	-183.370365	292.627360	710.293340	-49.641298	244.712113	639.875016	-73.931799	167.572348	599.555053	-79.580059	263.801653	627.142650	-106.325962	59.702801	527.384866	-98.542719	-4.228198	546.343956	-149.360741	214.552210	361.616422	-138.188856	140.142372	378.038914	-70.794700	139.788123	986.137928	-474.837429	215.670667	946.758286	-467.167449	240.490588	972.737062	-456.696973	262.977125	870.332729	-460.332479	359.686938	768.122253	-428.302630	369.338585	762.602037	-301.800186	273.518381	345.304427	-407.997338	220.488019	299.251510	-375.540559	425.715000	256.932168	-439.060344	326.330024	645.327766	-448.122976	337.633659	560.609671	-436.823347	305.015913	478.537923	-432.135188	369.059425	559.067890	-414.890043	518.140337	285.755414	-368.470016	-205.283858	960.971326	-261.498057	1.452310	82.517140	-461.125424	-15.296834	81.022118	-62.456860	
